<svg t="1677829450201" class="icon" viewBox="0 0 1024 1024" version="1.1" xmlns="http://www.w3.org/2000/svg" p-id="3417" width="200" height="200"><path d="M988.16101973 447.51915733c-0.06221653-6.14420373-2.7702944-11.96313173-7.43002133-15.96903466L525.16817707 40.01188587c-7.9987072-6.8755264-19.81994027-6.8755264-27.81864747 0L296.08839573 212.9872l0-108.81865387c0-11.786304-9.4951904-20.83506027-21.2814944-20.83506026l-93.90294293 0c-11.7852128 0-21.25748053 9.047664-21.25748053 20.83506026l0 226.08463254L41.78780053 431.55012267c-4.71866987 4.0539296-7.4322048 9.96454613-7.4322048 16.18515626l0 112.53421014c0 8.3403552 4.85838507 15.91664107 12.4379456 19.39533653 2.84888427 1.30874027 5.883328 1.946192 8.899216 1.946192 5.01229013 0 9.97000427-1.7649984 13.91805547-5.15855467l56.851072-48.88074453 0 345.70721707c0 64.7231616 52.65524373 117.37840533 117.37840533 117.37840533L781.6452768 990.6573408c64.7231616 0 117.37840533-52.65524373 117.37840533-117.37840533L899.02368213 528.02797653l55.02494827 47.2914816c6.3526848 5.46090773 15.3141184 6.70088213 22.91332693 3.16324374 7.59702507-3.53436267 12.42157333-11.18814827 12.33643414-19.56561494L988.16101973 447.51915733zM202.2171072 125.903024l51.3017504 0 0 123.67105707-51.3017504 44.0922176L202.2171072 125.903024zM574.63288853 947.9742848L431.6439936 947.9742848 431.6439936 713.21856427c0-11.76665707 9.57487147-21.34152853 21.34152853-21.34152854l100.30474667 0c11.76665707 0 21.34152853 9.57487147 21.34152853 21.34152854L574.63179733 947.9742848zM856.33953387 494.82155413l0 378.45738134c0 41.18657387-33.50877547 74.69534933-74.69534934 74.69534933l-164.3293312 0L617.31485333 713.21856427c0-35.3032448-28.72133973-64.02458453-64.02458453-64.02458454l-100.30474667 0c-35.3032448 0-64.02458453 28.72133973-64.02458453 64.02458454l0 234.75681173L243.8392 947.975376c-41.18657387 0-74.69534933-33.50877547-74.69534933-74.69534933L169.14385067 494.82155413c0-1.2508896-0.1298912-2.4690336-0.33618987-3.66098026l343.587472-295.42276907 344.216192 295.83864107C856.44977813 492.63850133 856.33953387 493.71583787 856.33953387 494.82155413zM526.30554773 151.4109088c-8.00307307-6.8755264-19.8264896-6.8766176-27.8251968 0.00327467L77.03865173 513.7748224l0-56.242 434.2202016-373.19513173 434.32171307 373.28245333 0.5566784 54.61890027L526.30554773 151.4109088z"  p-id="3418"></path></svg>