<svg t="1679457303993" class="icon" viewBox="0 0 1024 1024" version="1.1" xmlns="http://www.w3.org/2000/svg" p-id="3689" width="200" height="200"><path d="M435.58218225 801.08056057h97.53326739c12.06597121 0.60329857 21.81929796 10.15552577 22.82479557 22.12094724v99.54426261a24.13194244 24.13194244 0 0 1-22.12094725 22.82479556h-99.44371284a24.13194244 24.13194244 0 0 1-22.82479555-22.12094724L411.4502398 921.43862354v-97.53326741a24.13194244 24.13194244 0 0 1 22.12094724-22.72424579l2.01099521-0.10054977z m63.84909773-703.84832139c153.33838431 1.91044544 219.50012653 83.35575121 246.64856177 164.90160672l3.0164928 9.85387651 1.40769665 4.82638849 2.513744 9.75332673 1.20659713 4.82638849 2.0109952 9.65277697 1.0054976 4.72583874 1.50824639 9.45167747 1.30714689 9.25057793 1.10604736 9.04947843 0.90494785 8.74782912 0.80439806 12.76981954 0.30164929 8.04398081 0.20109954 11.6637722c0 89.99203537-49.47048203 160.27631776-137.55207197 216.98638252l-8.04398082 5.027488c-47.05728778 28.45558213-66.96614029 62.84360012-59.72655755 103.36515347l-147.40594845-0.20109951c0-103.26460372 33.58361991-172.64393827 100.75085971-208.33910314l6.23408513-3.21759232c66.76504079-33.38252037 100.14756115-77.72496463 100.14756116-132.92678299-3.82089087-75.91506895-43.2363969-113.82232854-118.34706774-113.82232854-68.97713549 0-108.19154197 37.90725958-117.74376921 113.82232854l-0.60329856 5.53023683H235.48815945c21.51764868-164.59995744 109.49868886-252.58099762 263.94312053-263.74202101z"  p-id="3690"></path></svg>